<svg width="1512" height="982" viewBox="0 0 1512 982" fill="none" xmlns="http://www.w3.org/2000/svg">
<g clip-path="url(#clip0_24_889)">
<path d="M-255 177.68C-91.8735 236.114 -3.00603 158.203 118.73 68.1179C240.466 -21.9669 267.248 153.333 432.81 209.332C598.371 265.331 552.111 -79.1829 634.892 -70.6614C717.672 -62.1399 649.5 288.46 793.149 284.808C908.068 281.887 1134.01 174.84 1232.62 121.682" stroke="#FCBD54" stroke-width="0.3"/>
<path d="M-255 152.271C-91.8735 210.705 -3.00603 132.794 118.73 42.7088C240.466 -47.376 267.248 127.924 432.81 183.923C598.371 239.921 552.111 -104.592 634.892 -96.0705C717.672 -87.5489 649.5 263.051 793.149 259.399C908.068 256.478 1134.01 149.431 1232.62 96.2727" stroke="#54ABFC" stroke-width="0.3"/>
<path d="M-250.13 126.551C-87.0038 184.985 1.8636 107.073 123.6 16.9886C245.336 -73.0962 272.118 102.204 437.679 158.203C603.241 214.201 556.981 -130.312 639.761 -121.791C722.542 -113.269 654.37 237.331 798.018 233.679C912.937 230.757 1138.88 123.711 1237.49 70.5525" stroke="#FCBD54" stroke-width="0.3"/>
<path d="M-250.13 101.142C-87.0038 159.576 1.8636 81.6644 123.6 -8.42036C245.336 -98.5052 272.118 76.795 437.679 132.794C603.241 188.792 556.981 -155.721 639.761 -147.2C722.542 -138.678 654.37 211.922 798.018 208.27C912.937 205.348 1138.88 98.3017 1237.49 45.1436" stroke="#54ABFC" stroke-width="0.3"/>
<path d="M-252.565 72.9873C-89.4389 131.421 -0.571461 53.5095 121.165 -36.5753C242.901 -126.66 269.683 48.6401 435.244 104.639C600.805 160.637 554.546 -183.876 637.326 -175.355C720.107 -166.833 651.935 183.767 795.583 180.115C910.502 177.193 1136.44 70.1468 1235.05 16.9886" stroke="#FCBD54" stroke-width="0.3"/>
<path d="M-252.565 47.5783C-89.4389 106.012 -0.571461 28.1005 121.165 -61.9843C242.901 -152.069 269.683 23.231 435.244 79.2297C600.805 135.228 554.546 -209.285 637.326 -200.764C720.107 -192.242 651.935 158.358 795.583 154.706C910.502 151.784 1136.44 44.7377 1235.05 -8.42041" stroke="#54ABFC" stroke-width="0.3"/>
<path d="M-250.13 21.8581C-87.0038 80.2914 1.8636 2.38026 123.6 -87.7045C245.336 -177.789 272.118 -2.48919 437.679 53.5095C603.241 109.508 556.981 -235.005 639.761 -226.484C722.542 -217.962 654.37 132.638 798.018 128.986C912.937 126.064 1138.88 19.0175 1237.49 -34.1406" stroke="#FCBD54" stroke-width="0.3"/>
<path d="M-250.13 -3.55097C-87.0038 54.8824 1.8636 -23.0288 123.6 -113.114C245.336 -203.198 272.118 -27.8982 437.679 28.1004C603.241 84.0991 556.981 -260.414 639.761 -251.893C722.542 -243.371 654.37 107.229 798.018 103.577C912.937 100.655 1138.88 -6.3915 1237.49 -59.5497" stroke="#54ABFC" stroke-width="0.3"/>
<path d="M-250.13 -29.2711C-87.0038 29.1623 1.8636 -48.7489 123.6 -138.834C245.336 -228.919 272.118 -53.6184 437.679 2.38029C603.241 58.3789 556.981 -286.135 639.761 -277.613C722.542 -269.091 654.37 81.5088 798.018 77.8567C912.937 74.9351 1138.88 -32.1117 1237.49 -85.2698" stroke="#FCBD54" stroke-width="0.3"/>
<path d="M-250.13 -54.6801C-87.0038 3.75326 1.8636 -74.1579 123.6 -164.243C245.336 -254.328 272.118 -79.0274 437.679 -23.0287C603.241 32.97 556.981 -311.544 639.761 -303.022C722.542 -294.5 654.37 56.0998 798.018 52.4477C912.937 49.5261 1138.88 -57.5207 1237.49 -110.679" stroke="#54ABFC" stroke-width="0.3"/>
<path d="M-250.13 -80.4003C-87.0038 -21.967 1.8636 -99.8781 123.6 -189.963C245.336 -280.048 272.118 -104.748 437.679 -48.7489C603.241 7.24974 556.981 -337.264 639.761 -328.742C722.542 -320.221 654.37 30.3796 798.018 26.7275C912.937 23.8058 1138.88 -83.2409 1237.49 -136.399" stroke="#FCBD54" stroke-width="0.3"/>
<path d="M-250.13 -105.809C-87.0038 -47.376 1.8636 -125.287 123.6 -215.372C245.336 -305.457 272.118 -130.157 437.679 -74.1579C603.241 -18.1593 556.981 -362.673 639.761 -354.151C722.542 -345.63 654.37 4.97057 798.018 1.31849C912.937 -1.60318 1138.88 -108.65 1237.49 -161.808" stroke="#54ABFC" stroke-width="0.3"/>
<path d="M-629 1143.68C-465.873 1202.11 -377.006 1124.2 -255.27 1034.12C-133.534 944.033 -106.752 1119.33 58.8096 1175.33C224.371 1231.33 178.111 886.817 260.892 895.339C343.672 903.86 275.5 1254.46 419.149 1250.81C534.068 1247.89 760.01 1140.84 858.617 1087.68" stroke="#FCBD54" stroke-width="0.3"/>
<path d="M-629 1118.27C-465.873 1176.7 -377.006 1098.79 -255.27 1008.71C-133.534 918.624 -106.752 1093.92 58.8096 1149.92C224.371 1205.92 178.111 861.408 260.892 869.93C343.672 878.451 275.5 1229.05 419.149 1225.4C534.068 1222.48 760.01 1115.43 858.617 1062.27" stroke="#54ABFC" stroke-width="0.3"/>
<path d="M-624.13 1092.55C-461.004 1150.98 -372.136 1073.07 -250.4 982.989C-128.664 892.904 -101.882 1068.2 63.6793 1124.2C229.241 1180.2 182.981 835.688 265.761 844.209C348.542 852.731 280.37 1203.33 424.018 1199.68C538.937 1196.76 764.88 1089.71 863.486 1036.55" stroke="#FCBD54" stroke-width="0.3"/>
<path d="M-624.13 1067.14C-461.004 1125.58 -372.136 1047.66 -250.4 957.58C-128.664 867.495 -101.882 1042.8 63.6793 1098.79C229.241 1154.79 182.981 810.279 265.761 818.8C348.542 827.322 280.37 1177.92 424.018 1174.27C538.937 1171.35 764.88 1064.3 863.486 1011.14" stroke="#54ABFC" stroke-width="0.3"/>
<path d="M-626.565 1038.99C-463.439 1097.42 -374.571 1019.51 -252.835 929.425C-131.099 839.34 -104.317 1014.64 61.2442 1070.64C226.805 1126.64 180.546 782.124 263.326 790.645C346.107 799.167 277.935 1149.77 421.583 1146.12C536.502 1143.19 762.445 1036.15 861.051 982.989" stroke="#FCBD54" stroke-width="0.3"/>
<path d="M-626.565 1013.58C-463.439 1072.01 -374.571 994.101 -252.835 904.016C-131.099 813.931 -104.317 989.231 61.2442 1045.23C226.805 1101.23 180.546 756.715 263.326 765.236C346.107 773.758 277.935 1124.36 421.583 1120.71C536.502 1117.78 762.445 1010.74 861.051 957.58" stroke="#54ABFC" stroke-width="0.3"/>
<path d="M-624.13 987.858C-461.004 1046.29 -372.136 968.38 -250.4 878.295C-128.664 788.211 -101.882 963.511 63.6793 1019.51C229.241 1075.51 182.981 730.995 265.761 739.516C348.542 748.038 280.37 1098.64 424.018 1094.99C538.937 1092.06 764.88 985.018 863.486 931.859" stroke="#FCBD54" stroke-width="0.3"/>
<path d="M-624.13 962.449C-461.004 1020.88 -372.136 942.971 -250.4 852.886C-128.664 762.802 -101.882 938.102 63.6793 994.1C229.241 1050.1 182.981 705.586 265.761 714.107C348.542 722.629 280.37 1073.23 424.018 1069.58C538.937 1066.66 764.88 959.608 863.486 906.45" stroke="#54ABFC" stroke-width="0.3"/>
<path d="M-624.13 936.729C-461.004 995.162 -372.136 917.251 -250.4 827.166C-128.664 737.081 -101.882 912.382 63.6793 968.38C229.241 1024.38 182.981 679.865 265.761 688.387C348.542 696.908 280.37 1047.51 424.018 1043.86C538.937 1040.93 764.88 933.888 863.486 880.73" stroke="#FCBD54" stroke-width="0.3"/>
<path d="M-624.13 911.32C-461.004 969.753 -372.136 891.842 -250.4 801.757C-128.664 711.672 -101.882 886.973 63.6793 942.971C229.241 998.97 182.981 654.456 265.761 662.978C348.542 671.5 280.37 1022.1 424.018 1018.45C538.937 1015.53 764.88 908.479 863.486 855.321" stroke="#54ABFC" stroke-width="0.3"/>
<path d="M-624.13 885.6C-461.004 944.033 -372.136 866.122 -250.4 776.037C-128.664 685.952 -101.882 861.252 63.6793 917.251C229.241 973.25 182.981 628.736 265.761 637.258C348.542 645.779 280.37 996.38 424.018 992.728C538.937 989.806 764.88 882.759 863.486 829.601" stroke="#FCBD54" stroke-width="0.3"/>
<path d="M-624.13 860.191C-461.004 918.624 -372.136 840.713 -250.4 750.628C-128.664 660.543 -101.882 835.843 63.6793 891.842C229.241 947.841 182.981 603.327 265.761 611.849C348.542 620.37 280.37 970.971 424.018 967.318C538.937 964.397 764.88 857.35 863.486 804.192" stroke="#54ABFC" stroke-width="0.3"/>
<path d="M-626.565 832.036C-463.439 890.469 -374.571 812.558 -252.835 722.473C-131.099 632.388 -104.317 807.688 61.2442 863.687C226.805 919.686 180.546 575.172 263.326 583.694C346.107 592.215 277.935 942.816 421.583 939.164C536.502 936.242 762.445 829.195 861.051 776.037" stroke="#FCBD54" stroke-width="0.3"/>
<path d="M-624.13 806.627C-461.004 865.06 -372.136 787.149 -250.4 697.064C-128.664 606.979 -101.882 782.279 63.6793 838.278C229.241 894.277 182.981 549.763 265.761 558.285C348.542 566.806 280.37 917.407 424.018 913.754C538.937 910.833 764.88 803.786 863.486 750.628" stroke="#54ABFC" stroke-width="0.3"/>
<path d="M-624.13 780.907C-461.004 839.34 -372.136 761.429 -250.4 671.344C-128.664 581.259 -101.882 756.559 63.6793 812.558C229.241 868.557 182.981 524.043 265.761 532.565C348.542 541.086 280.37 891.686 424.018 888.034C538.937 885.113 764.88 778.066 863.486 724.908" stroke="#FCBD54" stroke-width="0.3"/>
<path d="M-624.13 755.497C-461.004 813.931 -372.136 736.02 -250.4 645.935C-128.664 555.85 -101.882 731.15 63.6793 787.149C229.241 843.148 182.981 498.634 265.761 507.156C348.542 515.677 280.37 866.277 424.018 862.625C538.937 859.704 764.88 752.657 863.486 699.499" stroke="#54ABFC" stroke-width="0.3"/>
</g>
<defs>
<clipPath id="clip0_24_889">
<rect width="1512" height="982" fill="white"/>
</clipPath>
</defs>
</svg>
