<svg width="273" height="96" viewBox="0 0 273 96" fill="none" xmlns="http://www.w3.org/2000/svg">
<path opacity="0.798057" d="M174.329 18.3585C194.446 20.3934 214.038 23.0013 228.634 27.7568C236.04 30.1699 242.295 32.9003 247.108 35.8485C251.924 38.7982 255.282 41.9577 256.915 45.2227C258.523 48.4385 257.949 51.6441 256.014 54.8323C254.075 58.0262 250.78 61.185 246.981 64.2797C246.7 64.5084 246.42 64.7377 246.138 64.9676C238.548 71.1665 230.461 77.771 212.516 81.2652C203.295 83.0607 192.834 83.549 181.949 83.6067C176.623 83.635 171.197 83.5601 165.766 83.4852L165.415 83.4804C159.868 83.4039 154.32 83.3297 148.873 83.3677C143.865 83.4027 138.835 83.5032 133.815 83.6034C117.058 83.9381 100.426 84.2704 85.1691 82.1533C64.0271 79.2195 45.5992 74.152 35.643 67.6681C30.6938 64.4451 28.6495 60.9937 28.2329 57.4827C27.815 53.9606 29.0307 50.3485 30.6698 46.7975C33.8679 39.8692 40.2517 33.0422 54.2652 27.5317C68.4535 21.9524 87.554 17.4309 109.763 15.7333C131.271 14.0892 153.249 16.2261 174.329 18.3585Z" stroke="#54ABFC" stroke-width="0.3"/>
<path opacity="0.798057" d="M162.329 14.3585C182.446 16.3934 202.038 19.0013 216.634 23.7568C224.04 26.1699 230.295 28.9003 235.108 31.8485C239.924 34.7982 243.282 37.9577 244.915 41.2227C246.523 44.4385 245.949 47.6441 244.014 50.8323C242.075 54.0262 238.78 57.185 234.981 60.2797C234.7 60.5084 234.42 60.7377 234.138 60.9676C226.548 67.1665 218.461 73.771 200.516 77.2652C191.295 79.0607 180.834 79.549 169.949 79.6067C164.623 79.635 159.197 79.5601 153.766 79.4852L153.415 79.4804C147.868 79.4039 142.32 79.3297 136.873 79.3677C131.865 79.4027 126.835 79.5032 121.815 79.6034C105.058 79.9381 88.4257 80.2704 73.1691 78.1533C52.0271 75.2195 33.5992 70.152 23.643 63.6681C18.6938 60.4451 16.6495 56.9937 16.2329 53.4827C15.815 49.9606 17.0307 46.3485 18.6698 42.7975C21.8679 35.8692 28.2517 29.0422 42.2652 23.5317C56.4535 17.9524 75.554 13.4309 97.7628 11.7333C119.271 10.0892 141.249 12.2261 162.329 14.3585Z" stroke="#FCBD54" stroke-width="0.3"/>
</svg>
